<svg width="108" height="27" viewBox="0 0 108 27" fill="none" xmlns="http://www.w3.org/2000/svg">
<path d="M0.930156 0.799998H8.05816V20.348H20.0822V26H0.930156V0.799998ZM35.2241 26.504C32.5601 26.504 30.1601 25.94 28.0241 24.812C25.9121 23.684 24.2441 22.124 23.0201 20.132C21.8201 18.14 21.2201 15.896 21.2201 13.4C21.2201 10.904 21.8201 8.66 23.0201 6.668C24.2441 4.676 25.9121 3.116 28.0241 1.988C30.1601 0.859998 32.5601 0.295998 35.2241 0.295998C37.8881 0.295998 40.2761 0.859998 42.3881 1.988C44.5241 3.116 46.1921 4.676 47.3921 6.668C48.6161 8.66 49.2281 10.904 49.2281 13.4C49.2281 15.896 48.6161 18.14 47.3921 20.132C46.1921 22.124 44.5241 23.684 42.3881 24.812C40.2761 25.94 37.8881 26.504 35.2241 26.504ZM35.2241 20.6C36.4961 20.6 37.6481 20.3 38.6801 19.7C39.7121 19.1 40.5281 18.26 41.1281 17.18C41.7281 16.076 42.0281 14.816 42.0281 13.4C42.0281 11.984 41.7281 10.736 41.1281 9.656C40.5281 8.552 39.7121 7.7 38.6801 7.1C37.6481 6.5 36.4961 6.2 35.2241 6.2C33.9521 6.2 32.8001 6.5 31.7681 7.1C30.7361 7.7 29.9201 8.552 29.3201 9.656C28.7201 10.736 28.4201 11.984 28.4201 13.4C28.4201 14.816 28.7201 16.076 29.3201 17.18C29.9201 18.26 30.7361 19.1 31.7681 19.7C32.8001 20.3 33.9521 20.6 35.2241 20.6ZM69.8454 12.86H76.1454V23.3C74.7054 24.332 73.0494 25.124 71.1774 25.676C69.3054 26.228 67.4334 26.504 65.5614 26.504C62.9214 26.504 60.5454 25.952 58.4334 24.848C56.3214 23.72 54.6654 22.16 53.4654 20.168C52.2654 18.176 51.6654 15.92 51.6654 13.4C51.6654 10.88 52.2654 8.624 53.4654 6.632C54.6654 4.64 56.3334 3.092 58.4694 1.988C60.6054 0.859998 63.0174 0.295998 65.7054 0.295998C68.0574 0.295998 70.1694 0.691998 72.0414 1.484C73.9134 2.276 75.4734 3.416 76.7214 4.904L72.1854 9.008C70.4814 7.136 68.4414 6.2 66.0654 6.2C63.9054 6.2 62.1654 6.86 60.8454 8.18C59.5254 9.476 58.8654 11.216 58.8654 13.4C58.8654 14.792 59.1654 16.04 59.7654 17.144C60.3654 18.224 61.2054 19.076 62.2854 19.7C63.3654 20.3 64.6014 20.6 65.9934 20.6C67.3614 20.6 68.6454 20.324 69.8454 19.772V12.86ZM93.3725 26.504C90.7085 26.504 88.3085 25.94 86.1725 24.812C84.0605 23.684 82.3925 22.124 81.1685 20.132C79.9685 18.14 79.3685 15.896 79.3685 13.4C79.3685 10.904 79.9685 8.66 81.1685 6.668C82.3925 4.676 84.0605 3.116 86.1725 1.988C88.3085 0.859998 90.7085 0.295998 93.3725 0.295998C96.0365 0.295998 98.4245 0.859998 100.537 1.988C102.673 3.116 104.341 4.676 105.541 6.668C106.765 8.66 107.377 10.904 107.377 13.4C107.377 15.896 106.765 18.14 105.541 20.132C104.341 22.124 102.673 23.684 100.537 24.812C98.4245 25.94 96.0365 26.504 93.3725 26.504ZM93.3725 20.6C94.6445 20.6 95.7965 20.3 96.8285 19.7C97.8605 19.1 98.6765 18.26 99.2765 17.18C99.8765 16.076 100.177 14.816 100.177 13.4C100.177 11.984 99.8765 10.736 99.2765 9.656C98.6765 8.552 97.8605 7.7 96.8285 7.1C95.7965 6.5 94.6445 6.2 93.3725 6.2C92.1005 6.2 90.9485 6.5 89.9165 7.1C88.8845 7.7 88.0685 8.552 87.4685 9.656C86.8685 10.736 86.5685 11.984 86.5685 13.4C86.5685 14.816 86.8685 16.076 87.4685 17.18C88.0685 18.26 88.8845 19.1 89.9165 19.7C90.9485 20.3 92.1005 20.6 93.3725 20.6Z" fill="black"/>
</svg>
